<svg version="1.0" xmlns="http://www.w3.org/2000/svg"
 width="512.000000pt" height="512.000000pt" viewBox="0 0 512.000000 512.000000"
 preserveAspectRatio="xMidYMid meet">

<g transform="translate(0.000000,512.000000) scale(0.100000,-0.100000)"
fill="#e100ffb0" stroke="none">
<path d="M2325 4949 c-134 -13 -344 -56 -485 -101 -345 -111 -613 -265 -899
-517 -70 -63 -248 -253 -258 -277 -4 -10 323 -344 336 -344 3 0 22 22 41 47
60 80 188 209 283 287 664 537 1576 582 2282 112 167 -111 335 -266 437 -402
18 -24 36 -44 39 -44 8 0 339 330 339 339 0 18 -208 236 -310 324 -498 430
-1147 637 -1805 576z"/>
<path d="M2405 3914 c-175 -27 -327 -74 -466 -145 -368 -189 -633 -543 -716
-957 -24 -122 -24 -386 0 -502 54 -254 163 -473 331 -664 l43 -49 6 72 c10
118 66 219 159 287 70 52 130 71 274 89 71 8 146 18 167 21 l37 6 0 52 c0 50
-2 54 -56 105 -63 60 -129 156 -146 213 l-11 38 -70 0 c-100 0 -144 16 -202
75 -71 70 -91 146 -63 237 14 47 76 121 116 137 l29 12 6 117 c9 205 72 348
211 488 90 90 175 143 294 182 67 22 94 26 212 26 118 0 145 -4 212 -26 119
-39 204 -92 294 -182 139 -140 202 -283 211 -488 l6 -117 29 -12 c40 -16 102
-90 116 -137 28 -91 8 -167 -63 -237 -58 -59 -102 -75 -202 -75 l-70 0 -11
-38 c-17 -57 -81 -150 -145 -212 -55 -53 -57 -57 -57 -107 l0 -52 58 -6 c212
-26 305 -44 359 -71 121 -59 207 -184 221 -323 l7 -75 66 80 c158 189 255 390
305 629 25 122 26 383 1 507 -84 420 -350 773 -727 963 -191 96 -350 135 -575
140 -88 2 -173 1 -190 -1z"/>
<path d="M389 3583 c-102 -225 -168 -445 -205 -685 -25 -156 -25 -507 -1 -669
146 -977 842 -1755 1787 -1994 83 -21 133 -31 318 -61 l32 -5 0 244 0 245 -57
7 c-86 10 -270 59 -378 99 -584 219 -1030 716 -1184 1321 -44 173 -55 263 -55
470 0 259 26 422 107 652 l32 93 -175 175 c-96 96 -178 175 -183 175 -4 0 -22
-30 -38 -67z"/>
<path d="M4510 3475 l-174 -174 37 -113 c82 -248 102 -374 101 -633 0 -317
-50 -540 -185 -823 -189 -397 -503 -712 -901 -901 -179 -86 -305 -124 -585
-177 l-23 -4 0 -241 0 -240 48 6 c339 45 635 140 897 287 589 331 1005 878
1165 1530 52 211 64 322 64 568 0 246 -12 357 -64 568 -45 185 -168 510 -196
519 -5 2 -88 -76 -184 -172z"/>
<path d="M2445 3589 c-27 -6 -86 -28 -131 -49 -152 -73 -274 -232 -303 -394
-15 -79 -14 -82 8 -55 19 24 21 24 269 29 233 5 253 6 278 26 45 33 64 66 73
124 10 61 36 90 81 90 45 0 71 -29 81 -90 9 -58 29 -91 72 -124 21 -15 49 -21
118 -26 81 -4 93 -8 111 -30 l20 -25 -6 45 c-43 277 -259 474 -531 485 -49 2
-112 0 -140 -6z"/>
<path d="M2690 3039 c-14 -12 -47 -33 -75 -47 -48 -26 -57 -27 -253 -30 l-204
-4 4 -207 3 -207 37 -76 c45 -91 103 -147 196 -191 61 -29 76 -32 162 -32 86
0 101 3 162 32 93 44 151 100 196 191 l37 76 3 207 4 206 -48 8 c-52 7 -110
34 -160 71 -37 29 -33 28 -64 3z"/>
<path d="M1865 2775 c-16 -15 -25 -36 -25 -55 0 -51 38 -80 105 -80 l55 0 0
80 0 80 -55 0 c-46 0 -60 -4 -80 -25z"/>
<path d="M3120 2720 l0 -80 55 0 c67 0 105 29 105 80 0 51 -38 80 -105 80
l-55 0 0 -80z"/>
<path d="M2400 2071 c0 -25 11 -35 80 -81 l80 -53 80 53 c69 46 80 56 80 81 0
29 -1 29 -42 22 -24 -5 -77 -8 -118 -8 -41 0 -94 3 -117 8 -42 7 -43 7 -43
-22z"/>
<path d="M2300 1905 c0 -3 11 -28 25 -56 l26 -50 29 18 c17 9 30 20 30 23 0 5
-96 70 -105 70 -3 0 -5 -2 -5 -5z"/>
<path d="M2758 1877 c-26 -18 -48 -34 -48 -37 0 -3 13 -14 30 -23 l29 -18 26
50 c37 74 34 76 -37 28z"/>
<path d="M1991 1878 c-107 -15 -170 -60 -210 -148 -17 -36 -21 -66 -21 -156
l0 -112 63 -40 c98 -63 146 -87 243 -126 86 -34 262 -82 270 -73 2 2 17 68 33
146 27 136 28 145 13 191 -15 47 -16 48 -48 43 -21 -4 -42 0 -56 9 -13 9 -52
74 -88 147 l-64 131 -36 -1 c-19 -1 -64 -6 -99 -11z"/>
<path d="M2930 1759 c-36 -73 -75 -138 -88 -147 -14 -9 -35 -13 -56 -9 -32 5
-33 4 -48 -43 -15 -46 -14 -55 13 -191 16 -78 31 -144 33 -146 8 -8 179 38
268 72 97 38 167 74 256 132 l52 35 0 111 c0 91 -4 120 -21 157 -41 90 -100
131 -216 149 -133 20 -120 29 -193 -120z"/>
<path d="M2529 1722 l-26 -17 17 -50 c14 -41 21 -50 40 -50 19 0 26 9 40 50
l17 50 -26 17 c-14 10 -28 18 -31 18 -3 0 -17 -8 -31 -18z"/>
<path d="M2526 1348 c-10 -51 -20 -105 -23 -120 l-5 -28 62 0 63 0 -6 28 c-3
15 -13 69 -23 120 -14 71 -22 92 -34 92 -12 0 -20 -21 -34 -92z"/>
</g>
</svg>
