<?xml version="1.0" standalone="no"?>
<!DOCTYPE svg PUBLIC "-//W3C//DTD SVG 20010904//EN"
 "http://www.w3.org/TR/2001/REC-SVG-20010904/DTD/svg10.dtd">
<svg version="1.0" xmlns="http://www.w3.org/2000/svg"
 width="512.000000pt" height="512.000000pt" viewBox="0 0 512.000000 512.000000"
 preserveAspectRatio="xMidYMid meet">

<g transform="translate(0.000000,512.000000) scale(0.100000,-0.100000)"
fill="#e100ffb0" stroke="none">
<path d="M1882 4627 c-506 -343 -970 -693 -1307 -988 -182 -159 -393 -372
-411 -415 -16 -38 -12 -83 11 -120 8 -12 210 -119 507 -267 664 -331 1014
-527 1229 -686 84 -64 99 -71 140 -71 49 0 88 22 112 63 8 15 14 102 17 284 3
144 9 265 13 269 18 18 567 -86 902 -171 395 -100 681 -199 943 -326 153 -73
362 -199 362 -216 0 -5 -77 -60 -171 -123 -111 -75 -176 -126 -187 -145 -14
-26 -18 -111 -30 -634 -16 -672 -18 -652 49 -687 61 -31 106 -16 216 71 137
109 395 372 471 480 72 102 153 261 177 350 22 78 49 1032 34 1190 -33 346
-201 679 -455 899 -450 390 -1222 638 -2216 711 l-88 7 5 56 c2 32 7 154 10
273 5 213 5 216 -18 250 -28 41 -60 59 -110 59 -31 0 -64 -18 -205 -113z"/>
</g>
</svg>
