<?xml version="1.0" standalone="no"?>
<!DOCTYPE svg PUBLIC "-//W3C//DTD SVG 20010904//EN"
 "http://www.w3.org/TR/2001/REC-SVG-20010904/DTD/svg10.dtd">
<svg version="1.0" xmlns="http://www.w3.org/2000/svg"
 width="2400.000000pt" height="907.000000pt" viewBox="0 0 2400.000000 907.000000"
 preserveAspectRatio="xMidYMid meet">

<g transform="translate(0.000000,907.000000) scale(0.100000,-0.100000)"
fill="#000000" stroke="none">
<path d="M11033 9063 c-104 -2 -173 -7 -173 -13 0 -6 -52 -10 -129 -10 -76 0
-132 -4 -136 -10 -3 -6 -52 -10 -110 -10 -58 0 -107 -4 -110 -10 -3 -6 -48
-10 -100 -10 -52 0 -97 -4 -100 -10 -3 -5 -39 -10 -80 -10 -41 0 -77 -4 -80
-10 -3 -5 -42 -10 -86 -10 -46 0 -79 -4 -79 -10 0 -6 -30 -10 -70 -10 -40 0
-70 -4 -70 -10 0 -6 -30 -10 -70 -10 -40 0 -70 -4 -70 -10 0 -6 -26 -10 -59
-10 -33 0 -63 -4 -66 -10 -3 -5 -35 -10 -70 -10 -35 0 -67 -4 -70 -10 -3 -5
-26 -10 -50 -10 -24 0 -47 -4 -50 -10 -3 -5 -30 -10 -60 -10 -30 0 -57 -4 -60
-10 -3 -5 -26 -10 -50 -10 -24 0 -47 -4 -50 -10 -3 -5 -26 -10 -50 -10 -24 0
-47 -4 -50 -10 -3 -5 -26 -10 -50 -10 -24 0 -47 -4 -50 -10 -3 -5 -26 -10 -50
-10 -24 0 -47 -4 -50 -10 -3 -5 -26 -10 -50 -10 -24 0 -47 -4 -50 -10 -3 -5
-21 -10 -40 -10 -19 0 -37 -4 -40 -10 -3 -5 -28 -10 -56 -10 -27 0 -49 -4 -49
-10 0 -5 -18 -10 -40 -10 -22 0 -40 -4 -40 -10 0 -5 -18 -10 -40 -10 -22 0
-40 -4 -40 -10 0 -5 -18 -10 -39 -10 -22 0 -43 -4 -46 -10 -3 -5 -21 -10 -40
-10 -19 0 -37 -4 -40 -10 -3 -5 -21 -10 -40 -10 -19 0 -37 -4 -40 -10 -3 -5
-21 -10 -40 -10 -19 0 -37 -4 -40 -10 -3 -5 -17 -10 -29 -10 -13 0 -29 -7 -36
-15 -7 -8 -27 -15 -46 -15 -18 0 -36 -4 -39 -10 -3 -5 -21 -10 -40 -10 -19 0
-37 -4 -40 -10 -3 -5 -17 -10 -30 -10 -13 0 -27 -4 -30 -10 -3 -5 -21 -10 -40
-10 -19 0 -37 -4 -40 -10 -3 -5 -17 -10 -30 -10 -13 0 -27 -4 -30 -10 -3 -5
-17 -10 -30 -10 -13 0 -27 -4 -30 -10 -3 -5 -17 -10 -30 -10 -13 0 -27 -4 -30
-10 -3 -5 -21 -10 -40 -10 -19 0 -37 -4 -40 -10 -3 -5 -17 -10 -30 -10 -13 0
-27 -4 -30 -10 -3 -5 -17 -10 -30 -10 -13 0 -27 -4 -30 -10 -3 -5 -17 -10 -30
-10 -13 0 -27 -4 -30 -10 -3 -5 -17 -10 -30 -10 -13 0 -27 -4 -30 -10 -3 -5
-17 -10 -30 -10 -13 0 -27 -4 -30 -10 -3 -5 -17 -10 -30 -10 -13 0 -27 -4 -30
-10 -3 -5 -17 -10 -30 -10 -13 0 -27 -4 -30 -10 -3 -5 -19 -10 -36 -10 -16 0
-29 -4 -29 -10 0 -5 -9 -10 -20 -10 -11 0 -20 -4 -20 -10 0 -5 -13 -10 -30
-10 -16 0 -30 -4 -30 -10 0 -5 -13 -10 -30 -10 -16 0 -30 -4 -30 -10 0 -5 -13
-10 -30 -10 -16 0 -30 -4 -30 -10 0 -5 -9 -10 -20 -10 -11 0 -20 -4 -20 -10 0
-5 -13 -10 -30 -10 -16 0 -30 -4 -30 -10 0 -5 -9 -10 -20 -10 -11 0 -20 -4
-20 -10 0 -5 -13 -10 -30 -10 -16 0 -30 -4 -30 -10 0 -5 -11 -10 -25 -10 -13
0 -40 -9 -60 -20 -20 -11 -42 -20 -49 -20 -8 0 -40 -13 -71 -30 -31 -16 -63
-30 -71 -30 -7 0 -29 -9 -49 -20 -20 -11 -42 -20 -49 -20 -7 0 -48 -18 -91
-40 -43 -22 -83 -40 -90 -40 -6 0 -56 -22 -110 -50 -54 -27 -103 -50 -109 -50
-6 0 -125 -57 -264 -127 -358 -181 -411 -209 -430 -225 -9 -8 -51 -31 -94 -52
-42 -20 -82 -43 -88 -51 -7 -8 -21 -15 -31 -15 -11 0 -19 -4 -19 -10 0 -5 -9
-10 -20 -10 -11 0 -20 -4 -20 -10 0 -5 -8 -10 -18 -10 -10 0 -24 -9 -32 -20
-8 -11 -22 -20 -32 -20 -10 0 -18 -4 -18 -10 0 -5 -9 -10 -20 -10 -11 0 -20
-4 -20 -10 0 -5 -8 -10 -18 -10 -10 0 -24 -9 -32 -20 -8 -11 -22 -20 -32 -20
-10 0 -18 -4 -18 -10 0 -5 -8 -10 -18 -10 -10 0 -24 -9 -32 -20 -8 -11 -21
-20 -30 -20 -9 0 -22 -9 -30 -20 -8 -11 -22 -20 -32 -20 -10 0 -18 -4 -18 -10
0 -5 -8 -10 -18 -10 -10 0 -24 -9 -32 -20 -8 -11 -21 -20 -30 -20 -9 0 -22 -9
-30 -20 -8 -11 -21 -20 -30 -20 -9 0 -22 -9 -30 -20 -8 -11 -22 -20 -31 -20
-9 0 -24 -9 -34 -20 -10 -11 -23 -20 -30 -20 -7 0 -20 -9 -30 -20 -10 -11 -23
-20 -30 -20 -7 0 -20 -9 -30 -20 -10 -11 -23 -20 -30 -20 -7 0 -20 -9 -30 -20
-10 -11 -23 -20 -30 -20 -7 0 -20 -9 -30 -20 -10 -11 -23 -20 -30 -20 -7 0
-20 -9 -30 -20 -10 -11 -23 -20 -30 -20 -6 0 -24 -13 -40 -30 -16 -16 -34 -30
-40 -30 -6 0 -24 -13 -40 -30 -16 -16 -34 -30 -40 -30 -7 0 -20 -9 -30 -20
-10 -11 -23 -20 -30 -20 -6 0 -26 -16 -45 -35 -19 -19 -39 -35 -45 -35 -6 0
-29 -18 -50 -40 -21 -22 -44 -40 -50 -40 -6 0 -24 -13 -40 -30 -16 -16 -34
-30 -40 -30 -6 0 -29 -18 -50 -40 -21 -22 -44 -40 -50 -40 -6 0 -33 -22 -60
-50 -27 -27 -54 -50 -60 -50 -6 0 -33 -22 -60 -50 -27 -27 -54 -50 -60 -50 -6
0 -46 -36 -90 -80 -44 -44 -84 -80 -90 -80 -13 0 -745 -732 -745 -745 0 -6
-32 -42 -70 -80 -39 -38 -70 -74 -70 -80 0 -6 -23 -33 -50 -60 -28 -27 -50
-54 -50 -60 0 -6 -18 -29 -40 -50 -22 -21 -40 -44 -40 -50 0 -6 -20 -31 -45
-55 -24 -24 -42 -46 -40 -50 2 -4 -11 -22 -30 -40 -19 -19 -35 -39 -35 -45 0
-6 -13 -24 -30 -40 -16 -16 -30 -34 -30 -40 0 -6 -14 -24 -30 -40 -17 -16 -30
-34 -30 -40 0 -6 -14 -24 -30 -40 -17 -16 -30 -34 -30 -40 0 -7 -9 -20 -20
-30 -11 -10 -20 -23 -20 -30 0 -7 -9 -20 -20 -30 -11 -10 -20 -25 -20 -34 0
-9 -9 -22 -20 -29 -11 -7 -20 -20 -20 -30 0 -10 -9 -24 -20 -32 -11 -8 -20
-21 -20 -30 0 -9 -9 -22 -20 -30 -11 -8 -20 -21 -20 -30 0 -9 -9 -22 -20 -30
-11 -8 -20 -22 -20 -32 0 -10 -4 -18 -10 -18 -5 0 -10 -8 -10 -18 0 -10 -9
-24 -20 -32 -11 -8 -20 -21 -20 -30 0 -9 -9 -22 -20 -30 -11 -8 -20 -22 -20
-32 0 -10 -4 -18 -10 -18 -5 0 -10 -9 -10 -20 0 -11 -4 -20 -10 -20 -5 0 -10
-8 -10 -18 0 -10 -9 -24 -20 -32 -11 -8 -20 -22 -20 -32 0 -10 -4 -18 -10 -18
-5 0 -10 -9 -10 -20 0 -11 -4 -20 -10 -20 -5 0 -10 -8 -10 -18 0 -10 -9 -24
-20 -32 -11 -8 -20 -22 -20 -32 0 -10 -4 -18 -10 -18 -5 0 -10 -9 -10 -20 0
-11 -4 -20 -10 -20 -5 0 -10 -9 -10 -20 0 -11 -4 -20 -10 -20 -5 0 -10 -6 -10
-12 0 -16 -209 -436 -221 -443 -4 -3 -6 -12 -2 -21 3 -8 -3 -24 -12 -34 -10
-11 -14 -20 -10 -20 4 0 0 -9 -10 -20 -10 -11 -14 -20 -10 -20 4 0 0 -9 -9
-19 -10 -11 -15 -25 -11 -31 4 -6 -1 -20 -11 -31 -9 -10 -13 -19 -9 -19 4 0 0
-9 -10 -20 -9 -10 -15 -26 -12 -34 4 -9 2 -18 -3 -21 -15 -9 -42 -73 -36 -83
3 -6 -1 -15 -9 -22 -8 -7 -15 -21 -15 -31 0 -10 -9 -34 -20 -54 -11 -20 -20
-44 -20 -55 0 -10 -4 -22 -10 -25 -5 -3 -10 -17 -10 -30 0 -13 -4 -27 -10 -30
-5 -3 -10 -17 -10 -30 0 -13 -4 -27 -10 -30 -5 -3 -10 -17 -10 -30 0 -13 -4
-27 -10 -30 -5 -3 -10 -17 -10 -30 0 -13 -4 -27 -10 -30 -5 -3 -10 -17 -10
-30 0 -13 -4 -27 -10 -30 -5 -3 -10 -24 -10 -46 0 -21 -4 -39 -10 -39 -5 0
-10 -13 -10 -30 0 -16 -4 -30 -10 -30 -5 0 -10 -18 -10 -40 0 -22 -4 -40 -10
-40 -5 0 -10 -13 -10 -30 0 -16 -4 -30 -10 -30 -5 0 -10 -18 -10 -40 0 -22 -4
-40 -10 -40 -5 0 -10 -22 -10 -50 0 -27 -4 -50 -10 -50 -5 0 -10 -18 -10 -40
0 -22 -4 -40 -10 -40 -5 0 -10 -22 -10 -49 0 -28 -4 -53 -10 -56 -7 -4 -10
-237 -10 -666 l0 -659 12000 0 12000 0 0 609 c0 396 -4 612 -10 616 -5 3 -10
26 -10 50 0 24 -4 47 -10 50 -5 3 -10 28 -10 56 0 27 -4 49 -10 49 -5 0 -10
18 -10 40 0 22 -4 40 -10 40 -5 0 -10 23 -10 50 0 28 -4 50 -10 50 -5 0 -10
18 -10 40 0 22 -4 40 -10 40 -5 0 -10 14 -10 30 0 17 -4 30 -10 30 -5 0 -10
18 -10 40 0 22 -4 40 -10 40 -5 0 -10 14 -10 30 0 17 -4 30 -10 30 -5 0 -10
18 -10 39 0 22 -4 43 -10 46 -5 3 -10 17 -10 30 0 13 -4 27 -10 30 -5 3 -10
17 -10 30 0 13 -4 27 -10 30 -5 3 -10 17 -10 30 0 13 -4 27 -10 30 -5 3 -10
17 -10 30 0 13 -4 27 -10 30 -5 3 -10 17 -10 30 0 13 -4 27 -10 30 -5 3 -10
17 -10 30 0 13 -4 27 -10 30 -5 3 -10 14 -10 24 0 21 -27 78 -41 86 -5 4 -7
11 -3 16 6 11 -21 75 -36 84 -5 3 -7 12 -3 21 3 8 -3 24 -12 34 -10 11 -14 20
-10 20 4 0 0 9 -9 19 -10 11 -15 25 -11 31 4 6 -1 20 -11 31 -9 10 -13 19 -9
19 4 0 0 9 -10 20 -10 11 -14 20 -10 20 4 0 0 9 -10 20 -9 10 -15 26 -12 34 4
9 2 18 -2 21 -12 7 -221 427 -221 443 0 6 -4 12 -10 12 -5 0 -10 9 -10 20 0
11 -4 20 -10 20 -5 0 -10 9 -10 20 0 11 -4 20 -10 20 -5 0 -10 8 -10 18 0 10
-9 24 -20 32 -11 8 -20 22 -20 32 0 10 -4 18 -10 18 -5 0 -10 9 -10 20 0 11
-4 20 -10 20 -5 0 -10 8 -10 18 0 10 -9 24 -20 32 -11 8 -20 22 -20 32 0 10
-4 18 -10 18 -5 0 -10 9 -10 20 0 11 -4 20 -10 20 -5 0 -10 8 -10 18 0 10 -9
24 -20 32 -11 8 -20 22 -20 32 0 10 -4 18 -10 18 -5 0 -10 8 -10 18 0 10 -9
24 -20 32 -11 8 -20 21 -20 30 0 9 -9 22 -20 30 -11 8 -20 21 -20 30 0 9 -9
22 -20 30 -11 8 -20 21 -20 30 0 9 -9 22 -20 30 -11 8 -20 22 -20 32 0 10 -9
23 -20 30 -11 7 -20 20 -20 29 0 9 -9 24 -20 34 -11 10 -20 23 -20 30 0 7 -9
20 -20 30 -11 10 -20 23 -20 30 0 6 -13 24 -30 40 -16 16 -30 34 -30 40 0 6
-13 24 -30 40 -16 16 -30 34 -30 40 0 6 -13 24 -30 40 -16 16 -30 34 -30 40 0
6 -16 26 -35 45 -19 18 -32 36 -30 40 2 4 -16 26 -40 50 -25 24 -45 49 -45 55
0 6 -18 29 -40 50 -22 21 -40 44 -40 50 0 6 -22 33 -50 60 -27 27 -50 54 -50
60 0 6 -36 46 -80 90 -44 44 -80 84 -80 90 0 13 -712 725 -725 725 -6 0 -46
36 -90 80 -44 44 -84 80 -90 80 -6 0 -33 23 -60 50 -27 28 -54 50 -60 50 -6 0
-33 23 -60 50 -27 28 -54 50 -60 50 -6 0 -29 18 -50 40 -21 22 -44 40 -50 40
-6 0 -24 14 -40 30 -16 17 -34 30 -40 30 -6 0 -29 18 -50 40 -21 22 -44 40
-50 40 -6 0 -26 16 -45 35 -19 19 -39 35 -45 35 -7 0 -20 9 -30 20 -10 11 -23
20 -30 20 -6 0 -24 14 -40 30 -16 17 -34 30 -40 30 -6 0 -24 14 -40 30 -16 17
-34 30 -40 30 -7 0 -20 9 -30 20 -10 11 -23 20 -30 20 -7 0 -20 9 -30 20 -10
11 -23 20 -30 20 -7 0 -20 9 -30 20 -10 11 -23 20 -30 20 -7 0 -20 9 -30 20
-10 11 -23 20 -30 20 -7 0 -20 9 -30 20 -10 11 -23 20 -30 20 -7 0 -20 9 -30
20 -10 11 -25 20 -34 20 -9 0 -23 9 -31 20 -8 11 -21 20 -30 20 -9 0 -22 9
-30 20 -8 11 -21 20 -30 20 -9 0 -22 9 -30 20 -8 11 -22 20 -32 20 -10 0 -18
5 -18 10 0 6 -8 10 -18 10 -10 0 -24 9 -32 20 -8 11 -21 20 -30 20 -9 0 -22 9
-30 20 -8 11 -22 20 -32 20 -10 0 -18 5 -18 10 0 6 -8 10 -18 10 -10 0 -24 9
-32 20 -8 11 -22 20 -32 20 -10 0 -18 5 -18 10 0 6 -9 10 -20 10 -11 0 -20 5
-20 10 0 6 -8 10 -18 10 -10 0 -24 9 -32 20 -8 11 -22 20 -32 20 -10 0 -18 5
-18 10 0 6 -9 10 -20 10 -11 0 -20 5 -20 10 0 6 -8 10 -19 10 -10 0 -24 7 -31
15 -6 8 -46 31 -88 51 -43 21 -85 44 -94 52 -19 16 -72 44 -430 225 -139 70
-258 127 -264 127 -6 0 -55 23 -109 50 -54 28 -104 50 -110 50 -7 0 -47 18
-90 40 -43 22 -84 40 -91 40 -7 0 -29 9 -49 20 -20 11 -42 20 -49 20 -8 0 -40
14 -71 30 -31 17 -63 30 -71 30 -7 0 -29 9 -49 20 -20 11 -47 20 -60 20 -14 0
-25 5 -25 10 0 6 -13 10 -30 10 -16 0 -30 5 -30 10 0 6 -9 10 -20 10 -11 0
-20 5 -20 10 0 6 -13 10 -30 10 -16 0 -30 5 -30 10 0 6 -9 10 -20 10 -11 0
-20 5 -20 10 0 6 -13 10 -30 10 -16 0 -30 5 -30 10 0 6 -13 10 -30 10 -16 0
-30 5 -30 10 0 6 -13 10 -30 10 -16 0 -30 5 -30 10 0 6 -9 10 -20 10 -11 0
-20 5 -20 10 0 6 -13 10 -29 10 -17 0 -33 5 -36 10 -3 6 -17 10 -30 10 -13 0
-27 5 -30 10 -3 6 -17 10 -30 10 -13 0 -27 5 -30 10 -3 6 -17 10 -30 10 -13 0
-27 5 -30 10 -3 6 -17 10 -30 10 -13 0 -27 5 -30 10 -3 6 -17 10 -30 10 -13 0
-27 5 -30 10 -3 6 -17 10 -30 10 -13 0 -27 5 -30 10 -3 6 -17 10 -30 10 -13 0
-27 5 -30 10 -3 6 -21 10 -40 10 -19 0 -37 5 -40 10 -3 6 -17 10 -30 10 -13 0
-27 5 -30 10 -3 6 -17 10 -30 10 -13 0 -27 5 -30 10 -3 6 -17 10 -30 10 -13 0
-27 5 -30 10 -3 6 -21 10 -40 10 -19 0 -37 5 -40 10 -3 6 -17 10 -30 10 -13 0
-27 5 -30 10 -3 6 -21 10 -40 10 -19 0 -37 5 -40 10 -3 6 -21 10 -39 10 -19 0
-39 7 -46 15 -7 8 -23 15 -36 15 -12 0 -26 5 -29 10 -3 6 -21 10 -40 10 -19 0
-37 5 -40 10 -3 6 -21 10 -40 10 -19 0 -37 5 -40 10 -3 6 -21 10 -40 10 -19 0
-37 5 -40 10 -3 6 -24 10 -46 10 -21 0 -39 5 -39 10 0 6 -18 10 -40 10 -22 0
-40 5 -40 10 0 6 -18 10 -40 10 -22 0 -40 5 -40 10 0 6 -22 10 -49 10 -28 0
-53 5 -56 10 -3 6 -21 10 -40 10 -19 0 -37 5 -40 10 -3 6 -26 10 -50 10 -24 0
-47 5 -50 10 -3 6 -26 10 -50 10 -24 0 -47 5 -50 10 -3 6 -26 10 -50 10 -24 0
-47 5 -50 10 -3 6 -26 10 -50 10 -24 0 -47 5 -50 10 -3 6 -26 10 -50 10 -24 0
-47 5 -50 10 -3 6 -30 10 -60 10 -30 0 -57 5 -60 10 -3 6 -26 10 -50 10 -24 0
-47 5 -50 10 -3 6 -35 10 -70 10 -35 0 -67 5 -70 10 -3 6 -33 10 -66 10 -33 0
-59 4 -59 10 0 6 -30 10 -70 10 -40 0 -70 4 -70 10 0 6 -30 10 -70 10 -40 0
-70 4 -70 10 0 6 -33 10 -79 10 -44 0 -83 5 -86 10 -3 6 -39 10 -80 10 -41 0
-77 5 -80 10 -3 6 -48 10 -100 10 -52 0 -97 4 -100 10 -3 6 -52 10 -110 10
-58 0 -107 4 -110 10 -4 6 -60 10 -135 10 -91 0 -130 4 -132 12 -3 9 -228 12
-959 13 -525 1 -1032 0 -1126 -2z m-3708 -1953 c200 -51 297 -103 423 -228
163 -161 252 -367 252 -584 0 -137 -25 -238 -91 -374 -163 -334 -559 -526
-916 -444 -109 25 -191 60 -295 126 -50 32 -190 172 -221 221 -40 64 -72 126
-85 168 -7 22 -17 49 -21 60 -30 75 -44 327 -22 399 5 17 15 51 22 76 47 171
174 345 324 447 97 65 171 98 290 128 61 16 285 19 340 5z m6679 -1 c97 -25
122 -33 130 -41 6 -4 20 -8 33 -8 13 0 23 -4 23 -10 0 -5 7 -10 16 -10 8 0 35
-13 59 -30 24 -16 46 -30 49 -30 13 0 140 -120 186 -175 33 -40 83 -122 99
-165 8 -19 18 -39 23 -44 4 -6 8 -20 8 -32 0 -13 4 -25 9 -28 16 -10 23 -88
23 -241 0 -153 -7 -231 -23 -241 -5 -3 -9 -14 -9 -25 0 -10 -4 -27 -9 -37 -5
-9 -19 -39 -32 -67 -36 -76 -75 -130 -143 -199 -71 -72 -114 -109 -147 -126
-13 -7 -26 -16 -29 -19 -3 -4 -27 -17 -55 -30 -27 -13 -58 -27 -67 -32 -10 -5
-27 -9 -37 -9 -11 0 -22 -4 -25 -9 -15 -24 -310 -39 -396 -21 -72 16 -134 36
-182 61 -10 5 -25 9 -33 9 -8 0 -15 3 -15 8 0 4 -12 13 -27 20 -16 6 -63 40
-106 73 -119 93 -213 229 -272 394 -21 56 -28 123 -28 250 1 145 9 221 24 231
5 3 9 14 9 25 0 10 4 27 9 37 5 9 19 40 32 67 76 161 223 308 384 384 28 13
58 27 67 32 10 5 27 9 37 9 11 0 23 5 26 10 3 6 21 10 38 10 18 0 39 5 47 10
20 13 253 13 304 -1z m-5345 -3550 c206 -65 321 -217 321 -424 0 -176 -85
-319 -230 -387 -98 -45 -110 -48 -197 -48 -134 0 -238 44 -323 137 -43 47 -80
99 -80 113 0 6 -4 18 -9 28 -32 63 -42 192 -20 261 46 146 143 256 264 301 11
4 31 12 45 18 34 14 185 15 229 1z m3450 0 c166 -53 268 -156 317 -318 59
-195 -66 -439 -261 -511 -11 -4 -33 -13 -48 -19 -15 -6 -68 -11 -117 -11 -49
0 -102 5 -117 11 -15 6 -38 15 -50 20 -57 22 -81 37 -133 86 -114 105 -168
286 -126 424 49 160 147 260 311 317 41 14 181 14 224 1z m3378 0 c175 -72
245 -139 299 -288 79 -219 -44 -469 -272 -550 -68 -24 -212 -29 -261 -10 -149
60 -222 122 -276 237 -30 64 -32 73 -32 188 0 118 1 121 37 195 22 44 55 92
80 115 42 40 130 90 193 112 42 14 198 14 232 1z"/>
<path d="M6763 6673 c-24 -5 -73 -46 -73 -63 0 -5 101 -78 225 -160 183 -121
233 -150 261 -150 28 0 77 29 259 150 124 83 225 154 225 158 0 21 -35 52 -68
62 -35 9 -780 13 -829 3z"/>
<path d="M6680 6275 c0 -213 3 -261 16 -286 29 -57 44 -59 481 -59 359 0 401
2 433 18 58 28 60 40 60 325 0 141 -2 257 -5 257 -3 0 -101 -64 -218 -142
l-212 -143 -60 0 -60 0 -212 143 c-117 78 -215 142 -218 142 -3 0 -5 -115 -5
-255z"/>
<path d="M13485 6700 c-79 -77 -93 -113 -77 -195 42 -209 306 -505 551 -618
53 -24 80 -30 139 -31 l73 -1 69 71 c97 100 97 109 -17 225 -74 76 -91 89
-119 89 -49 0 -63 -9 -85 -52 -38 -74 -100 -75 -196 -5 -99 74 -163 191 -134
246 7 11 29 30 50 41 42 21 51 36 51 84 0 26 -14 45 -83 114 -65 65 -91 84
-120 89 -34 5 -40 2 -102 -57z"/>
<path d="M8370 3340 c-24 -24 -25 -43 -4 -64 18 -19 55 -21 72 -4 17 17 15 54
-4 72 -21 21 -40 20 -64 -4z"/>
<path d="M8618 3211 c-30 -15 -38 -16 -38 -5 0 10 -12 14 -40 14 l-40 0 0
-141 0 -140 43 3 42 3 3 89 c3 95 11 116 46 116 39 0 46 -19 46 -117 l0 -93
46 0 46 0 -3 115 c-4 107 -6 116 -29 139 -36 35 -77 40 -122 17z"/>
<path d="M8360 3079 l0 -140 43 3 42 3 3 138 3 137 -46 0 -45 0 0 -141z"/>
<path d="M11943 3346 c-86 -28 -134 -82 -153 -173 -10 -43 -8 -59 10 -113 17
-50 19 -69 10 -93 -5 -17 -8 -32 -6 -35 3 -2 20 1 40 8 29 9 40 8 68 -6 50
-26 135 -23 189 7 52 29 103 100 112 156 25 155 -126 295 -270 249z m14 -108
c26 -25 30 -53 8 -62 -21 -8 -19 -20 11 -55 25 -30 64 -42 64 -21 0 6 7 13 16
17 18 7 64 -33 64 -55 0 -24 -31 -52 -55 -52 -58 0 -185 128 -185 186 0 22 31
64 47 64 4 0 17 -10 30 -22z"/>
<path d="M15181 3391 c-18 -10 -44 -35 -57 -57 -23 -37 -24 -48 -24 -199 0
-147 2 -163 23 -199 39 -69 68 -77 257 -74 152 3 167 5 196 25 56 40 64 72 64
250 0 182 -9 212 -76 250 -36 21 -52 23 -194 22 -130 0 -160 -3 -189 -18z
m377 -63 c7 -7 12 -21 12 -33 0 -44 -60 -63 -80 -26 -14 27 -13 37 6 55 18 19
45 21 62 4z m-114 -67 c49 -27 71 -66 71 -126 0 -88 -59 -149 -145 -149 -40 0
-57 6 -87 31 -95 75 -71 219 42 258 44 15 74 11 119 -14z"/>
<path d="M15516 3302 c-3 -6 -1 -14 5 -17 15 -10 25 3 12 16 -7 7 -13 7 -17 1z"/>
<path d="M15294 3216 c-96 -96 13 -244 134 -182 74 38 75 156 2 199 -47 28
-97 22 -136 -17z"/>
</g>
</svg>
